<?xml version="1.0" standalone="no"?>
<!DOCTYPE svg PUBLIC "-//W3C//DTD SVG 20010904//EN"
 "http://www.w3.org/TR/2001/REC-SVG-20010904/DTD/svg10.dtd">
<svg version="1.0" xmlns="http://www.w3.org/2000/svg"
 width="1000.000000pt" height="1000.000000pt" viewBox="0 0 1000.000000 1000.000000"
 preserveAspectRatio="xMidYMid meet">

<g transform="translate(0.000000,1000.000000) scale(0.100000,-0.100000)"
fill="#000000" stroke="none">
<path d="M690 9507 c-21 -7 -64 -41 -110 -87 -90 -90 -110 -139 -110 -270 0
-158 -124 -22 1529 -1681 808 -810 1473 -1478 1477 -1482 5 -5 8 -214 6 -465
-4 -625 10 -789 83 -1008 87 -261 267 -520 478 -689 209 -168 460 -280 721
-322 138 -22 424 -13 551 16 135 32 239 68 354 123 l103 51 272 -272 271 -272
-25 -19 c-14 -11 -70 -47 -125 -80 -576 -343 -1268 -415 -1905 -198 -228 77
-503 229 -688 380 -417 340 -707 821 -801 1333 -36 191 -41 279 -41 735 0 469
-5 538 -39 611 -33 69 -104 134 -205 184 -86 43 -166 47 -263 13 -75 -26 -168
-109 -200 -178 -56 -122 -56 -128 -50 -657 5 -470 10 -549 43 -768 87 -570
380 -1160 784 -1579 181 -188 407 -374 575 -472 33 -20 94 -55 135 -80 94 -55
273 -143 365 -179 104 -41 327 -112 404 -129 36 -8 84 -19 106 -25 22 -5 83
-17 137 -27 94 -16 96 -18 102 -47 3 -16 6 -208 6 -426 0 -343 2 -404 17 -447
23 -70 63 -124 125 -170 81 -61 137 -79 243 -78 77 0 98 4 141 27 69 35 106
68 147 130 57 85 61 125 62 567 0 217 4 402 8 411 6 11 40 21 115 33 116 19
191 36 322 73 133 38 171 50 230 73 30 12 66 25 80 29 40 13 338 161 420 209
41 25 127 80 191 123 64 44 122 79 129 79 7 0 468 -454 1024 -1009 556 -556
1032 -1026 1057 -1046 86 -67 251 -94 356 -59 62 21 126 73 168 138 32 48 47
99 62 217 6 41 -15 119 -45 169 -26 43 -2153 2181 -5212 5237 -3068 3067
-3198 3196 -3246 3225 -66 42 -250 61 -334 35z m4494 -5238 c-9 -16 -148 -31
-223 -24 -229 20 -418 118 -551 284 -119 148 -159 277 -167 526 l-5 170 475
-474 c262 -261 474 -478 471 -482z"/>
<path d="M5010 9156 c-3 -2 -46 -7 -95 -10 -126 -8 -235 -21 -270 -34 -16 -6
-77 -26 -135 -44 -273 -84 -546 -280 -727 -523 -71 -94 -193 -321 -193 -358 0
-9 -4 -18 -9 -21 -4 -3 -14 -27 -20 -53 -7 -27 -17 -58 -21 -70 -5 -12 -16
-63 -25 -113 -13 -73 -14 -103 -5 -152 35 -194 192 -315 395 -306 62 2 92 9
135 30 110 54 185 157 211 288 30 152 101 284 218 400 73 73 102 94 191 138
137 68 232 87 385 79 117 -7 195 -27 287 -73 205 -103 340 -269 404 -494 17
-61 19 -136 24 -1215 l5 -1150 27 -57 c91 -195 326 -281 511 -187 65 34 135
106 167 175 l30 62 -2 1204 c-3 1258 -2 1218 -45 1378 -24 88 -48 148 -99 250
-70 140 -117 209 -248 363 -59 69 -220 207 -296 254 -133 81 -186 111 -210
118 -14 4 -29 11 -35 15 -30 23 -209 73 -290 80 -49 5 -103 11 -120 13 -74 12
-141 18 -145 13z"/>
<path d="M7523 6107 c-108 -46 -179 -116 -219 -218 -16 -39 -18 -106 -24 -549
-8 -540 -15 -638 -66 -855 -38 -168 -46 -224 -40 -292 10 -117 93 -230 211
-288 54 -26 69 -29 160 -29 89 0 106 3 153 28 112 57 163 127 216 291 40 126
104 470 92 500 -3 8 2 76 10 152 19 170 17 964 -2 998 -7 11 -20 40 -30 65
-28 67 -139 173 -209 199 -76 29 -182 28 -252 -2z"/>
</g>
</svg>
