<?xml version="1.0" standalone="no"?>
<!DOCTYPE svg PUBLIC "-//W3C//DTD SVG 20010904//EN"
 "http://www.w3.org/TR/2001/REC-SVG-20010904/DTD/svg10.dtd">
<svg version="1.0" xmlns="http://www.w3.org/2000/svg"
 width="491.000000pt" height="508.000000pt" viewBox="0 0 491.000000 508.000000"
 preserveAspectRatio="xMidYMid meet">

<g transform="translate(0.000000,508.000000) scale(0.100000,-0.100000)"
fill="#000000" stroke="none">
<path d="M2297 4460 c-37 -485 -67 -916 -75 -1080 l-7 -125 -26 3 c-15 2 -44
-4 -64 -12 -36 -15 -39 -15 -74 6 -34 21 -868 570 -921 607 -14 10 -63 44
-109 76 l-83 58 76 -94 c42 -52 135 -168 207 -259 150 -190 154 -194 415 -520
319 -398 346 -430 353 -430 4 0 18 12 32 26 34 37 123 88 199 114 126 45 314
38 437 -16 l51 -22 49 34 c26 19 106 76 178 127 71 51 129 97 128 102 -5 31
-298 157 -421 181 -21 4 -37 15 -42 28 -5 12 -36 145 -69 296 -33 151 -76 343
-96 425 -19 83 -49 209 -65 280 -16 72 -38 164 -48 205 l-19 75 -6 -85z"/>
<path d="M4099 3831 c-8 -10 -111 -92 -229 -182 -118 -89 -244 -186 -280 -213
-115 -89 -424 -320 -463 -346 -20 -14 -37 -28 -37 -32 0 -3 18 -21 40 -38 22
-17 40 -36 40 -41 0 -6 -11 -20 -24 -32 -13 -12 -79 -81 -146 -154 l-121 -132
24 -33 c97 -129 132 -236 131 -403 -1 -120 -12 -172 -64 -300 -12 -29 -11 -31
72 -115 46 -47 114 -119 151 -160 l67 -75 25 30 c14 17 46 65 71 109 44 73 65
119 108 237 l16 45 98 13 c53 7 122 17 152 22 30 5 125 18 210 29 85 11 270
36 410 55 140 19 288 37 328 41 69 6 111 24 57 24 -14 0 -58 6 -98 14 -40 8
-157 31 -262 51 -104 20 -221 42 -260 50 -38 8 -122 23 -185 35 -366 66 -441
83 -449 99 -5 9 -15 43 -22 76 -8 33 -35 102 -61 155 -39 80 -44 97 -33 110 7
8 40 54 74 103 33 48 89 126 123 175 34 48 92 130 128 182 37 52 111 158 166
235 55 77 130 183 167 235 37 52 76 107 88 123 11 15 16 27 11 27 -5 0 -16 -8
-23 -19z"/>
<path d="M1554 2818 c-66 -94 -112 -182 -146 -282 -15 -44 -30 -71 -43 -77
-11 -4 -81 -18 -155 -29 -218 -34 -618 -99 -705 -115 -44 -8 -106 -18 -138
-21 -32 -4 -56 -9 -53 -11 2 -2 41 -10 87 -18 84 -14 272 -52 594 -120 94 -20
212 -44 264 -55 51 -10 98 -23 103 -28 5 -5 18 -45 29 -88 12 -43 42 -124 68
-180 l48 -101 -134 -199 c-73 -110 -153 -228 -178 -264 -24 -36 -78 -116 -122
-177 -43 -62 -96 -139 -118 -170 -22 -32 -67 -96 -100 -143 -78 -109 -85 -121
-49 -89 16 14 83 66 149 116 66 49 185 139 265 199 80 60 155 116 166 124 12
8 74 56 139 105 139 105 254 185 267 185 5 0 35 -15 66 -33 59 -34 213 -100
292 -124 175 -54 445 -57 616 -8 16 5 29 -5 64 -52 50 -66 101 -130 201 -253
72 -90 246 -305 407 -505 53 -66 112 -140 131 -165 52 -70 54 -70 21 5 -17 39
-47 108 -65 155 -33 85 -113 278 -165 400 -120 284 -160 383 -156 387 8 9 97
-16 186 -52 46 -19 85 -33 87 -32 1 2 -78 61 -177 131 l-179 128 -56 103 c-69
130 -99 185 -141 258 -19 32 -34 62 -34 68 0 5 -4 9 -10 9 -5 0 -10 -4 -10 -9
0 -13 -113 -92 -177 -125 -79 -39 -157 -56 -263 -57 -103 0 -179 13 -248 42
l-43 19 -152 -114 c-84 -63 -166 -126 -184 -140 -36 -31 -49 -28 -95 21 l-28
29 150 149 c82 83 150 154 150 158 0 5 -20 34 -44 65 -53 68 -66 94 -99 192
-51 154 -45 309 19 457 l36 84 -43 53 c-24 30 -84 104 -133 165 -48 61 -92
111 -96 111 -5 0 -34 -37 -66 -82z"/>
</g>
</svg>
